<svg width="28" height="18" viewBox="0 0 28 18" fill="none" xmlns="http://www.w3.org/2000/svg">
<rect width="28" height="18" rx="9" fill="#616F82"/>
<path d="M4.80664 13V12.0977L7.7832 9.10352C8.9082 7.97852 9.16016 7.5332 9.16016 6.87695V6.86523C9.1543 6.0625 8.54492 5.48828 7.68945 5.48828C6.69922 5.48828 5.99023 6.15625 5.97852 7.01172V7.04688H4.73633V7.01172C4.73633 5.5 6.01953 4.4043 7.67188 4.4043C9.29492 4.4043 10.4551 5.42383 10.4551 6.78906V6.80078C10.4551 7.76758 10.0039 8.45312 8.48633 9.95312L6.56445 11.8398V11.8926H10.5898V13H4.80664ZM13.8945 13V5.8457H13.8652L11.6562 7.36914V6.12695L13.8828 4.54492H15.1777V13H13.8945ZM20.1934 13.1406C18.3887 13.1406 17.2109 12.1562 17.0938 10.7793L17.0879 10.7031H18.3477L18.3535 10.7676C18.4355 11.5176 19.1445 12.0449 20.1934 12.0449C21.2246 12.0449 21.9219 11.4707 21.9219 10.6504V10.6387C21.9219 9.68359 21.2305 9.15039 20.0996 9.15039H19.0742V8.13086H20.0645C21.0312 8.13086 21.6875 7.5625 21.6875 6.77734V6.76562C21.6875 5.95117 21.1367 5.47656 20.1816 5.47656C19.2441 5.47656 18.5879 5.96875 18.5059 6.75391L18.5 6.80664H17.2695L17.2754 6.74805C17.4043 5.33594 18.5293 4.4043 20.1816 4.4043C21.8633 4.4043 22.9648 5.29492 22.9648 6.5957V6.60742C22.9648 7.65625 22.2148 8.35938 21.1836 8.57617V8.60547C22.4258 8.7168 23.2578 9.4668 23.2578 10.6504V10.6621C23.2578 12.1094 21.9863 13.1406 20.1934 13.1406Z" fill="white"/>
</svg>
